<?xml version="1.0" encoding="iso-8859-1" standalone="no"?> 
<?xml-stylesheet href="lkmpg.css" type="text/css"?> 
<svg xmlns="http://www.w3.org/2000/svg" xmlns:xlink="http://www.w3.org/1999/xlink" width="262.29887pt" height="370.6857pt" viewBox="-137.62978 -356.05934 262.29887 370.6857 "> 
<g transform="translate(0, 14.62636 ) scale(1,-1) translate(0,356.05934 )"> 
                                         <g stroke="#000" fill="#000">
 <g stroke-width="0.4">
 <g stroke-width="0.8">
 <g stroke="#000">
 <g fill="#ffb3b3">
 <g stroke-opacity=".5">
 <g fill-opacity=".5">
 <g fill="#808080">
 <g transform="translate(2.15225,-2.15225)">
 <path d=" M 38.67912 14.22636 L -38.67912 14.22636 C -40.88829 14.22636 -42.67912 12.43553 -42.67912 10.22636 L -42.67912 -10.22636 C -42.67912 -12.43553 -40.88829 -14.22636 -38.67912 -14.22636 L 38.67912 -14.22636 C 40.88829 -14.22636 42.67912 -12.43553 42.67912 -10.22636 L 42.67912 10.22636 C 42.67912 12.43553 40.88829 14.22636 38.67912 14.22636 Z M -42.67912 -14.22636  " stroke="none"/>
 </g>
 </g>
 </g>
 </g>
 <g stroke="#000">
 <g fill="#ffb3b3">
 <path d=" M 38.67912 14.22636 L -38.67912 14.22636 C -40.88829 14.22636 -42.67912 12.43553 -42.67912 10.22636 L -42.67912 -10.22636 C -42.67912 -12.43553 -40.88829 -14.22636 -38.67912 -14.22636 L 38.67912 -14.22636 C 40.88829 -14.22636 42.67912 -12.43553 42.67912 -10.22636 L 42.67912 10.22636 C 42.67912 12.43553 40.88829 14.22636 38.67912 14.22636 Z M -42.67912 -14.22636  " />
 </g>
 </g>
 <g transform="translate(-37.40753,-2.49939)">
 <g fill="#000">
 <text style="stroke:none" transform="scale(1,-1) translate(37.40753,0)" text-anchor="middle"  font-size="10"> 
<g fill="#000">
 <g stroke="none"> start() treatment</g> </g>
 </text> 
</g>
 </g>
 </g>
 </g>
 <g stroke="#000">
 <g fill="#b3ffb3">
 <g stroke="#000">
 <g fill="#b3ffb3">
 <path d=" M 46.37778 -85.35825 L 0.0 -38.98047 L -46.37778 -85.35825 L 0.0 -131.73602 Z  " />
 </g>
 </g>
 <g transform="translate(-36.43555,-88.80185)">
 <g fill="#000">
 <text style="stroke:none" transform="scale(1,-1) translate(36.43555,0)" text-anchor="middle"  font-size="10"> 
<g fill="#000">
 <g stroke="none"> return is NULL? </g> </g>
 </text> 
</g>
 </g>
 </g>
 </g>
 <g transform="translate(106.28506,-88.80185)">
 <g fill="#000">
 <text style="stroke:none" transform="scale(1,-1) translate(7.52594,0)" text-anchor="middle"  font-size="10"> 
<g fill="#000">
 <g stroke="none"> Yes </g> </g>
 </text> 
</g>
 </g>
 <g stroke="#000">
 <g fill="#ffd9b3">
 <g stroke="#000">
 <g fill="#ffd9b3">
 <path d=" M -46.01128 -184.94286 h 92.02255 v 28.45273 h -92.02255 Z  " />
 </g>
 </g>
 <g transform="translate(-42.67912,-173.21588)">
 <g fill="#000">
 <text style="stroke:none" transform="scale(1,-1) translate(42.67912,0)" text-anchor="middle"  font-size="10"> 
<g fill="#000">
 <g stroke="none">  next() treatment  </g> </g>
 </text> 
</g>
 </g>
 </g>
 </g>
 <g stroke="#000">
 <g fill="#b3ffb3">
 <g stroke="#000">
 <g fill="#b3ffb3">
 <path d=" M 46.37778 -256.07474 L 0.0 -209.69696 L -46.37778 -256.07474 L 0.0 -302.45251 Z  " />
 </g>
 </g>
 <g transform="translate(-36.43555,-259.51834)">
 <g fill="#000">
 <text style="stroke:none" transform="scale(1,-1) translate(36.43555,0)" text-anchor="middle"  font-size="10"> 
<g fill="#000">
 <g stroke="none"> return is NULL? </g> </g>
 </text> 
</g>
 </g>
 </g>
 </g>
 <g stroke="#000">
 <g fill="#ffb3b3">
 <g stroke-opacity=".5">
 <g fill-opacity=".5">
 <g fill="#808080">
 <g transform="translate(2.15225,-2.15225)">
 <path d=" M 38.67912 -327.20662 L -38.67912 -327.20662 C -40.88829 -327.20662 -42.67912 -328.99745 -42.67912 -331.20662 L -42.67912 -351.65935 C -42.67912 -353.86852 -40.88829 -355.65935 -38.67912 -355.65935 L 38.67912 -355.65935 C 40.88829 -355.65935 42.67912 -353.86852 42.67912 -351.65935 L 42.67912 -331.20662 C 42.67912 -328.99745 40.88829 -327.20662 38.67912 -327.20662 Z M -42.67912 -355.65935  " stroke="none"/>
 </g>
 </g>
 </g>
 </g>
 <g stroke="#000">
 <g fill="#ffb3b3">
 <path d=" M 38.67912 -327.20662 L -38.67912 -327.20662 C -40.88829 -327.20662 -42.67912 -328.99745 -42.67912 -331.20662 L -42.67912 -351.65935 C -42.67912 -353.86852 -40.88829 -355.65935 -38.67912 -355.65935 L 38.67912 -355.65935 C 40.88829 -355.65935 42.67912 -353.86852 42.67912 -351.65935 L 42.67912 -331.20662 C 42.67912 -328.99745 40.88829 -327.20662 38.67912 -327.20662 Z M -42.67912 -355.65935  " />
 </g>
 </g>
 <g transform="translate(-36.2828,-343.93237)">
 <g fill="#000">
 <text style="stroke:none" transform="scale(1,-1) translate(36.2828,0)" text-anchor="middle"  font-size="10"> 
<g fill="#000">
 <g stroke="none"> stop() treatment </g> </g>
 </text> 
</g>
 </g>
 </g>
 </g>
 <path d=" M 0.0 -14.62636 L 0.0 -37.70038  " fill="none"/>
 <g transform="matrix(0.0,-1.0,1.0,0.0,0.0,-37.70038)">
 <g stroke-width="0.64">
 <g stroke-dasharray="none" stroke-dashoffset="0.0">
 <g stroke-linecap="round">
 <g stroke-linejoin="round">
 <path d=" M -1.55997 2.07996 C -1.42996 1.29997 0.0 0.12999 0.38998 0.0 C 0.0 -0.12999 -1.42996 -1.29997 -1.55997 -2.07996  " fill="none"/>
 </g>
 </g>
 </g>
 </g>
  </g>
 <path d=" M 46.94713 -85.35825 L 101.84291 -85.35825  " fill="none"/>
 <g transform="translate(101.84291,-85.35825)">
 <g stroke-width="0.64">
 <g stroke-dasharray="none" stroke-dashoffset="0.0">
 <g stroke-linecap="round">
 <g stroke-linejoin="round">
 <path d=" M -1.55997 2.07996 C -1.42996 1.29997 0.0 0.12999 0.38998 0.0 C 0.0 -0.12999 -1.42996 -1.29997 -1.55997 -2.07996  " fill="none"/>
 </g>
 </g>
 </g>
 </g>
  </g>
 <g transform="translate(71.01787,-85.35825)">
 <g fill="#000">
 <text style="stroke:none" transform="scale(1,-1) translate(0.0,0)" text-anchor="middle"  font-size="10"> 
<g fill="#000">
 <g stroke="none"> </g> </g>
 </text> 
</g>
 </g>
 <path d=" M 0.0 -132.3061 L 0.0 -155.38013  " fill="none"/>
 <g transform="matrix(0.0,-1.0,1.0,0.0,0.0,-155.38013)">
 <g stroke-width="0.64">
 <g stroke-dasharray="none" stroke-dashoffset="0.0">
 <g stroke-linecap="round">
 <g stroke-linejoin="round">
 <path d=" M -1.55997 2.07996 C -1.42996 1.29997 0.0 0.12999 0.38998 0.0 C 0.0 -0.12999 -1.42996 -1.29997 -1.55997 -2.07996  " fill="none"/>
 </g>
 </g>
 </g>
 </g>
  </g>
 <g transform="translate(-26.24359,-140.46597)">
 <g fill="#000">
 <text style="stroke:none" transform="scale(1,-1) translate(6.24847,0)" text-anchor="middle"  font-size="10"> 
<g fill="#000">
 <g stroke="none"> No </g> </g>
 </text> 
</g>
 </g>
 <path d=" M 0.0 -185.34285 L 0.0 -208.41687  " fill="none"/>
 <g transform="matrix(0.0,-1.0,1.0,0.0,0.0,-208.41687)">
 <g stroke-width="0.64">
 <g stroke-dasharray="none" stroke-dashoffset="0.0">
 <g stroke-linecap="round">
 <g stroke-linejoin="round">
 <path d=" M -1.55997 2.07996 C -1.42996 1.29997 0.0 0.12999 0.38998 0.0 C 0.0 -0.12999 -1.42996 -1.29997 -1.55997 -2.07996  " fill="none"/>
 </g>
 </g>
 </g>
 </g>
  </g>
 <path d=" M -46.94345 -256.07474 C -70.4245 -232.2995 -70.18651 -194.19754 -46.9164 -171.21538  " fill="none"/>
 <g transform="matrix(0.71146,0.70265,-0.70265,0.71146,-46.91641,-171.21538)">
 <g stroke-width="0.64">
 <g stroke-dasharray="none" stroke-dashoffset="0.0">
 <g stroke-linecap="round">
 <g stroke-linejoin="round">
 <path d=" M -1.55997 2.07996 C -1.42996 1.29997 0.0 0.12999 0.38998 0.0 C 0.0 -0.12999 -1.42996 -1.29997 -1.55997 -2.07996  " fill="none"/>
 </g>
 </g>
 </g>
 </g>
  </g>
 <g transform="translate(-80.62753,-216.72888)">
 <g fill="#000">
 <text style="stroke:none" transform="scale(1,-1) translate(6.24847,0)" text-anchor="middle"  font-size="10"> 
<g fill="#000">
 <g stroke="none"> No </g> </g>
 </text> 
</g>
 </g>
 <path d=" M 0.0 -303.0226 L 0.0 -326.09662  " fill="none"/>
 <g transform="matrix(0.0,-1.0,1.0,0.0,0.0,-326.09662)">
 <g stroke-width="0.64">
 <g stroke-dasharray="none" stroke-dashoffset="0.0">
 <g stroke-linecap="round">
 <g stroke-linejoin="round">
 <path d=" M -1.55997 2.07996 C -1.42996 1.29997 0.0 0.12999 0.38998 0.0 C 0.0 -0.12999 -1.42996 -1.29997 -1.55997 -2.07996  " fill="none"/>
 </g>
 </g>
 </g>
 </g>
  </g>
 <g transform="translate(-27.52106,-311.18246)">
 <g fill="#000">
 <text style="stroke:none" transform="scale(1,-1) translate(7.52594,0)" text-anchor="middle"  font-size="10"> 
<g fill="#000">
 <g stroke="none"> Yes </g> </g>
 </text> 
</g>
 </g>
 <path d=" M -43.07912 -341.43298 C -137.22978 -247.28232 -137.22978 -94.15067 -43.58116 -0.50204  " fill="none"/>
 <g transform="matrix(0.7071,0.7071,-0.7071,0.7071,-43.58118,-0.50206)">
 <g stroke-width="0.64">
 <g stroke-dasharray="none" stroke-dashoffset="0.0">
 <g stroke-linecap="round">
 <g stroke-linejoin="round">
 <path d=" M -1.55997 2.07996 C -1.42996 1.29997 0.0 0.12999 0.38998 0.0 C 0.0 -0.12999 -1.42996 -1.29997 -1.55997 -2.07996  " fill="none"/>
 </g>
 </g>
 </g>
 </g>
  </g>
 <g transform="translate(-117.42422,-170.71648)">
 <g fill="#000">
 <text style="stroke:none" transform="scale(1,-1) translate(0.0,0)" text-anchor="middle"  font-size="10"> 
<g fill="#000">
 <g stroke="none"> </g> </g>
 </text> 
</g>
 </g>
 </g>
 </g>
 </g>
 
                                                                               </g> 
</svg> 
